<?xml version="1.0" encoding="UTF-8"?>
<!DOCTYPE svg PUBLIC "-//W3C//DTD SVG 1.1//EN" "http://www.w3.org/Graphics/SVG/1.1/DTD/svg11.dtd">
<svg xmlns="http://www.w3.org/2000/svg" version="1.1" width="30px" height="44px" style="shape-rendering:geometricPrecision; text-rendering:geometricPrecision; image-rendering:optimizeQuality; fill-rule:evenodd; clip-rule:evenodd" xmlns:xlink="http://www.w3.org/1999/xlink">
<g><path style="opacity:0.989" fill="#f8a11a" d="M 7.5,-0.5 C 10.1667,-0.5 12.8333,-0.5 15.5,-0.5C 15.702,1.94965 15.3686,4.28298 14.5,6.5C 12.5,6.5 10.5,6.5 8.5,6.5C 7.53178,4.39263 7.19845,2.0593 7.5,-0.5 Z"/></g>
<g><path style="opacity:0.965" fill="#f1a41b" d="M 5.5,-0.5 C 6.16667,-0.5 6.83333,-0.5 7.5,-0.5C 7.19845,2.0593 7.53178,4.39263 8.5,6.5C 6.83247,8.47865 6.1658,10.812 6.5,13.5C 4.41682,11.3956 2.08349,11.0623 -0.5,12.5C -0.5,10.1667 -0.5,7.83333 -0.5,5.5C 1.16667,3.16667 3.16667,1.16667 5.5,-0.5 Z"/></g>
<g><path style="opacity:0.943" fill="#f17c20" d="M 18.5,-0.5 C 19.8333,-0.5 21.1667,-0.5 22.5,-0.5C 22.5,0.166667 22.8333,0.5 23.5,0.5C 23.5,10.8333 23.5,21.1667 23.5,31.5C 22.8333,31.1667 22.1667,30.8333 21.5,30.5C 21.5,23.5 21.5,16.5 21.5,9.5C 23.2551,5.39194 22.2551,2.05861 18.5,-0.5 Z"/></g>
<g><path style="opacity:0.957" fill="#d47919" d="M 15.5,-0.5 C 16.5,-0.5 17.5,-0.5 18.5,-0.5C 22.2551,2.05861 23.2551,5.39194 21.5,9.5C 19.9639,6.90781 17.6305,5.90781 14.5,6.5C 15.3686,4.28298 15.702,1.94965 15.5,-0.5 Z"/></g>
<g><path style="opacity:0.997" fill="#ef6e22" d="M 23.5,0.5 C 24.5,0.833333 25.1667,1.5 25.5,2.5C 25.1729,12.3478 25.5062,22.0144 26.5,31.5C 25.5,32.8333 24.5,32.8333 23.5,31.5C 23.5,21.1667 23.5,10.8333 23.5,0.5 Z"/></g>
<g><path style="opacity:0.999" fill="#f15d21" d="M 25.5,2.5 C 26.7899,3.05773 27.6232,4.05773 28,5.5C 28.4997,13.8267 28.6664,22.16 28.5,30.5C 27.8333,30.8333 27.1667,31.1667 26.5,31.5C 25.5062,22.0144 25.1729,12.3478 25.5,2.5 Z"/></g>
<g><path style="opacity:0.962" fill="#0e8aca" d="M 6.5,13.5 C 6.5,14.8333 6.5,16.1667 6.5,17.5C 5.34225,21.3348 3.00891,24.3348 -0.5,26.5C -0.5,21.8333 -0.5,17.1667 -0.5,12.5C 2.08349,11.0623 4.41682,11.3956 6.5,13.5 Z"/></g>
<g><path style="opacity:0.884" fill="#0288c9" d="M 6.5,17.5 C 6.5,20.8333 6.5,24.1667 6.5,27.5C 4.58184,30.026 2.2485,32.026 -0.5,33.5C -0.5,31.1667 -0.5,28.8333 -0.5,26.5C 3.00891,24.3348 5.34225,21.3348 6.5,17.5 Z"/></g>
<g><path style="opacity:0.88" fill="#0283c3" d="M 6.5,27.5 C 6.5,29.5 6.5,31.5 6.5,33.5C 4.74146,37.5638 5.74146,40.8971 9.5,43.5C 8.16667,43.5 6.83333,43.5 5.5,43.5C 3.16667,41.8333 1.16667,39.8333 -0.5,37.5C -0.5,36.1667 -0.5,34.8333 -0.5,33.5C 2.2485,32.026 4.58184,30.026 6.5,27.5 Z"/></g>
<g><path style="opacity:0.972" fill="#056599" d="M 6.5,33.5 C 7.40058,35.7271 9.06725,36.7271 11.5,36.5C 12.3186,38.7722 12.9853,41.1055 13.5,43.5C 12.1667,43.5 10.8333,43.5 9.5,43.5C 5.74146,40.8971 4.74146,37.5638 6.5,33.5 Z"/></g>
<g><path style="opacity:1" fill="#0e6ea9" d="M 21.5,34.5 C 22.9164,37.9269 22.2497,40.9269 19.5,43.5C 17.5,43.5 15.5,43.5 13.5,43.5C 12.9853,41.1055 12.3186,38.7722 11.5,36.5C 15.162,36.9661 18.4954,36.2994 21.5,34.5 Z"/></g>
<g><path style="opacity:1" fill="#14639a" d="M 21.5,30.5 C 22.1667,30.8333 22.8333,31.1667 23.5,31.5C 24.5,32.8333 25.5,32.8333 26.5,31.5C 27.1667,31.1667 27.8333,30.8333 28.5,30.5C 29.4302,36.301 27.4302,40.6343 22.5,43.5C 21.5,43.5 20.5,43.5 19.5,43.5C 22.2497,40.9269 22.9164,37.9269 21.5,34.5C 21.5,33.1667 21.5,31.8333 21.5,30.5 Z"/></g>
</svg>
